[img]http://i.imgur.com/6Pu9c.jpg[/img]


[code]

Killing.Them.Softly.2012.720p.BDRip.XViD.AC3-26k

 
http://www.imdb.com/title/tt1764234/


Plot:

Jackie Cogan is an enforcer hired to restore order after three dumb guys rob a Mob protected card game, 
causing the local criminal economy to collapse.



Sources - VIDEO: Killing.Them.Softly.2012.1080p.BluRay.AVC.DTS-HD.MA.5.1-PublicHD ..... thanks .... :P
          AUDIO: Killing.Them.Softly.2012.1080p.BluRay.AVC.DTS-HD.MA.5.1-PublicHD ..... thanks .... :P
          Subs : ENG.SRT in torrent file.....
      

Format                                   : AVI
Format/Info                              : Audio Video Interleave
Format profile                           : OpenDML
File size                                : 2.82 GiB
Duration                                 : 1h 37mn
Overall bit rate                         : 4 150 Kbps
Writing library                          : VirtualDub build 32839/release

Video
ID                                       : 0
Format                                   : MPEG-4 Visual
Format profile                           : Advanced Simple@L5
Format settings, BVOP                    : 2
Format settings, QPel                    : No
Format settings, GMC                     : No warppoints
Format settings, Matrix                  : Default (H.263)
Codec ID                                 : XVID
Codec ID/Hint                            : XviD
Duration                                 : 1h 37mn
Bit rate                                 : 3 500 Kbps
Width                                    : 1 280 pixels
Height                                   : 528 pixels
Display aspect ratio                     : 2.40:1
Frame rate                               : 24.000 fps
Color space                              : YUV
Chroma subsampling                       : 4:2:0
Bit depth                                : 8 bits
Scan type                                : Progressive
Compression mode                         : Lossy
Bits/(Pixel*Frame)                       : 0.216
Stream size                              : 2.37 GiB (84%)
Writing library                          : XviD 1.2.1 (UTC 2008-12-04)

Audio
ID                                       : 1
Format                                   : AC-3
Format/Info                              : Audio Coding 3
Mode extension                           : CM (complete main)
Format settings, Endianness              : Big
Codec ID                                 : 2000
Duration                                 : 1h 37mn
Bit rate mode                            : Constant
Bit rate                                 : 640 Kbps
Channel(s)                               : 6 channels
Channel positions                        : Front: L C R, Side: L R, LFE
Sampling rate                            : 48.0 KHz
Bit depth                                : 16 bits
Compression mode                         : Lossy
Stream size                              : 445 MiB (15%)
Alignment                                : Split accross interleaves
Interleave, duration                     : 42 ms (1.00 video frame)
Interleave, preload duration             : 500 ms

Notes -

Took the BD made a script to make magic happen and this is the outcome.. enjoy

[/code]

Screens:

[img]http://i.imgur.com/UI2dg.jpg[/img]
[img]http://i.imgur.com/UUuVh.png[/img]
[img]http://i.imgur.com/ZmBKW.png[/img]
[img]http://i.imgur.com/dCSKC.png[/img]
[img]http://i.imgur.com/HgOz8.jpg[/img]
[img]http://imageshack.us/a/img28/9774/84549017.png[/img]
[img]http://imageshack.us/a/img829/245/16401483.png[/img]
[img]http://imageshack.us/a/img715/6290/96449127.png[/img]
[img]http://imageshack.us/a/img834/9199/72268290.png[/img]
[img]http://imageshack.us/a/img705/2618/74886821.png[/img]

Greetz:
XtremeEncode|CM8|RX|VISION|HDSCENE|xTriLL|ADTRG|CRYS|REMIXHD|HS|Tommiecook
BIDA|RX|REFILL|INSPiRAL|AXED|HOPE|Anonymous|GooN|NOIR|Blackjesus|Gabroo Punjab Deh
|UNiQUE|RESiSTANCE|TRiNiTY|LEGION

To all the people who have helped me, you know who you are

Anything to offer email us @: 26k@hushmail.me 